<svg width="139" height="24" viewBox="0 0 139 24" fill="none" xmlns="http://www.w3.org/2000/svg">
<path d="M33.858 17.14C33.0273 17.14 32.3133 17.0047 31.716 16.734C31.1187 16.454 30.652 16.0293 30.316 15.46C29.98 14.8813 29.798 14.1627 29.77 13.304C29.7607 12.9027 29.756 12.506 29.756 12.114C29.756 11.722 29.7607 11.3207 29.77 10.91C29.798 10.0607 29.9847 9.35133 30.33 8.782C30.6753 8.21267 31.1467 7.78333 31.744 7.494C32.3507 7.20467 33.0553 7.06 33.858 7.06C34.6607 7.06 35.3653 7.20467 35.972 7.494C36.5787 7.78333 37.0547 8.21267 37.4 8.782C37.7453 9.35133 37.932 10.0607 37.96 10.91C37.9787 11.3207 37.988 11.722 37.988 12.114C37.988 12.506 37.9787 12.9027 37.96 13.304C37.932 14.1627 37.75 14.8813 37.414 15.46C37.078 16.0293 36.6067 16.454 36 16.734C35.4027 17.0047 34.6887 17.14 33.858 17.14ZM33.858 15.53C34.4647 15.53 34.9593 15.3527 35.342 14.998C35.7247 14.634 35.93 14.046 35.958 13.234C35.9767 12.8233 35.986 12.4453 35.986 12.1C35.986 11.7453 35.9767 11.3673 35.958 10.966C35.9393 10.4247 35.8367 9.986 35.65 9.65C35.4727 9.30467 35.23 9.05733 34.922 8.908C34.614 8.74933 34.2593 8.67 33.858 8.67C33.466 8.67 33.116 8.74933 32.808 8.908C32.5 9.05733 32.2527 9.30467 32.066 9.65C31.8887 9.986 31.7907 10.4247 31.772 10.966C31.7627 11.3673 31.758 11.7453 31.758 12.1C31.758 12.4453 31.7627 12.8233 31.772 13.234C31.8 14.046 32.0053 14.634 32.388 14.998C32.7707 15.3527 33.2607 15.53 33.858 15.53ZM39.9944 17C39.901 17 39.8217 16.9673 39.7564 16.902C39.691 16.8367 39.6584 16.7573 39.6584 16.664V10.07C39.6584 9.96733 39.691 9.88333 39.7564 9.818C39.8217 9.75267 39.901 9.72 39.9944 9.72H41.1284C41.2217 9.72 41.301 9.75267 41.3664 9.818C41.441 9.88333 41.4784 9.96733 41.4784 10.07V10.644C41.693 10.3453 41.9684 10.1167 42.3044 9.958C42.6497 9.79933 43.0464 9.72 43.4944 9.72H44.0684C44.171 9.72 44.2504 9.75267 44.3064 9.818C44.3717 9.88333 44.4044 9.96267 44.4044 10.056V11.064C44.4044 11.1573 44.3717 11.2367 44.3064 11.302C44.2504 11.3673 44.171 11.4 44.0684 11.4H42.9764C42.5284 11.4 42.1784 11.526 41.9264 11.778C41.6837 12.03 41.5624 12.3753 41.5624 12.814V16.664C41.5624 16.7573 41.5297 16.8367 41.4644 16.902C41.399 16.9673 41.315 17 41.2124 17H39.9944ZM48.0889 17.14C47.6036 17.14 47.1742 17.0607 46.8009 16.902C46.4369 16.734 46.1336 16.5007 45.8909 16.202C45.6482 15.9033 45.4616 15.5533 45.3309 15.152C45.2002 14.7413 45.1256 14.2933 45.1069 13.808C45.0976 13.64 45.0929 13.4907 45.0929 13.36C45.0929 13.22 45.0976 13.066 45.1069 12.898C45.1256 12.4313 45.1956 11.9973 45.3169 11.596C45.4476 11.1947 45.6342 10.8447 45.8769 10.546C46.1289 10.238 46.4369 10 46.8009 9.832C47.1742 9.664 47.6036 9.58 48.0889 9.58C48.5929 9.58 49.0176 9.66867 49.3629 9.846C49.7176 10.014 50.0116 10.2333 50.2449 10.504V7.396C50.2449 7.30267 50.2729 7.22333 50.3289 7.158C50.3942 7.09267 50.4782 7.06 50.5809 7.06H51.7709C51.8642 7.06 51.9436 7.09267 52.0089 7.158C52.0742 7.22333 52.1069 7.30267 52.1069 7.396V16.664C52.1069 16.7573 52.0742 16.8367 52.0089 16.902C51.9436 16.9673 51.8642 17 51.7709 17H50.6649C50.5622 17 50.4782 16.9673 50.4129 16.902C50.3569 16.8367 50.3289 16.7573 50.3289 16.664V16.146C50.0956 16.4353 49.7969 16.6733 49.4329 16.86C49.0782 17.0467 48.6302 17.14 48.0889 17.14ZM48.6069 15.642C48.9989 15.642 49.3116 15.5533 49.5449 15.376C49.7782 15.1987 49.9509 14.9747 50.0629 14.704C50.1749 14.424 50.2356 14.1393 50.2449 13.85C50.2542 13.682 50.2589 13.5047 50.2589 13.318C50.2589 13.122 50.2542 12.94 50.2449 12.772C50.2356 12.492 50.1702 12.226 50.0489 11.974C49.9276 11.7127 49.7502 11.498 49.5169 11.33C49.2836 11.162 48.9802 11.078 48.6069 11.078C48.2149 11.078 47.9022 11.1667 47.6689 11.344C47.4449 11.512 47.2816 11.736 47.1789 12.016C47.0762 12.296 47.0156 12.604 46.9969 12.94C46.9876 13.22 46.9876 13.5 46.9969 13.78C47.0156 14.116 47.0762 14.424 47.1789 14.704C47.2816 14.984 47.4449 15.2127 47.6689 15.39C47.9022 15.558 48.2149 15.642 48.6069 15.642ZM57.1088 17.14C56.0728 17.14 55.2515 16.8413 54.6448 16.244C54.0382 15.6467 53.7115 14.7973 53.6648 13.696C53.6555 13.6027 53.6508 13.486 53.6508 13.346C53.6508 13.1967 53.6555 13.08 53.6648 12.996C53.7022 12.296 53.8608 11.6893 54.1408 11.176C54.4302 10.6627 54.8268 10.2707 55.3308 10C55.8348 9.72 56.4275 9.58 57.1088 9.58C57.8648 9.58 58.4995 9.73867 59.0128 10.056C59.5262 10.364 59.9135 10.798 60.1748 11.358C60.4362 11.9087 60.5668 12.548 60.5668 13.276V13.57C60.5668 13.6633 60.5342 13.7427 60.4688 13.808C60.4035 13.8733 60.3195 13.906 60.2168 13.906H55.5688C55.5688 13.906 55.5688 13.92 55.5688 13.948C55.5688 13.976 55.5688 13.9993 55.5688 14.018C55.5782 14.3447 55.6388 14.648 55.7508 14.928C55.8722 15.1987 56.0448 15.418 56.2688 15.586C56.5022 15.754 56.7775 15.838 57.0948 15.838C57.3562 15.838 57.5755 15.8007 57.7528 15.726C57.9302 15.642 58.0748 15.5487 58.1868 15.446C58.2988 15.3433 58.3782 15.2593 58.4248 15.194C58.5088 15.082 58.5742 15.0167 58.6208 14.998C58.6768 14.97 58.7562 14.956 58.8588 14.956H60.0628C60.1562 14.956 60.2308 14.984 60.2868 15.04C60.3522 15.096 60.3802 15.166 60.3708 15.25C60.3615 15.3993 60.2822 15.5813 60.1328 15.796C59.9928 16.0107 59.7875 16.2207 59.5168 16.426C59.2462 16.6313 58.9055 16.804 58.4948 16.944C58.0935 17.0747 57.6315 17.14 57.1088 17.14ZM55.5688 12.73H58.6628V12.688C58.6628 12.324 58.6022 12.0067 58.4808 11.736C58.3595 11.4653 58.1822 11.2507 57.9488 11.092C57.7155 10.9333 57.4355 10.854 57.1088 10.854C56.7822 10.854 56.5022 10.9333 56.2688 11.092C56.0355 11.2507 55.8582 11.4653 55.7368 11.736C55.6248 12.0067 55.5688 12.324 55.5688 12.688V12.73ZM62.3889 17C62.2956 17 62.2162 16.9673 62.1509 16.902C62.0856 16.8367 62.0529 16.7573 62.0529 16.664V10.07C62.0529 9.96733 62.0856 9.88333 62.1509 9.818C62.2162 9.75267 62.2956 9.72 62.3889 9.72H63.5229C63.6162 9.72 63.6956 9.75267 63.7609 9.818C63.8356 9.88333 63.8729 9.96733 63.8729 10.07V10.644C64.0876 10.3453 64.3629 10.1167 64.6989 9.958C65.0442 9.79933 65.4409 9.72 65.8889 9.72H66.4629C66.5656 9.72 66.6449 9.75267 66.7009 9.818C66.7662 9.88333 66.7989 9.96267 66.7989 10.056V11.064C66.7989 11.1573 66.7662 11.2367 66.7009 11.302C66.6449 11.3673 66.5656 11.4 66.4629 11.4H65.3709C64.9229 11.4 64.5729 11.526 64.3209 11.778C64.0782 12.03 63.9569 12.3753 63.9569 12.814V16.664C63.9569 16.7573 63.9242 16.8367 63.8589 16.902C63.7936 16.9673 63.7096 17 63.6069 17H62.3889ZM74.8212 17.14C74.2799 17.14 73.8272 17.0467 73.4632 16.86C73.1086 16.6733 72.8146 16.4353 72.5812 16.146V16.664C72.5812 16.7573 72.5486 16.8367 72.4832 16.902C72.4272 16.9673 72.3479 17 72.2452 17H71.1392C71.0459 17 70.9666 16.9673 70.9012 16.902C70.8359 16.8367 70.8032 16.7573 70.8032 16.664V7.396C70.8032 7.30267 70.8359 7.22333 70.9012 7.158C70.9666 7.09267 71.0459 7.06 71.1392 7.06H72.3292C72.4319 7.06 72.5112 7.09267 72.5672 7.158C72.6326 7.22333 72.6652 7.30267 72.6652 7.396V10.504C72.8986 10.2333 73.1879 10.014 73.5332 9.846C73.8879 9.66867 74.3172 9.58 74.8212 9.58C75.3159 9.58 75.7452 9.664 76.1092 9.832C76.4732 10 76.7766 10.238 77.0192 10.546C77.2712 10.8447 77.4626 11.1947 77.5932 11.596C77.7239 11.9973 77.7939 12.4313 77.8032 12.898C77.8126 13.066 77.8172 13.22 77.8172 13.36C77.8172 13.4907 77.8126 13.64 77.8032 13.808C77.7846 14.2933 77.7099 14.7413 77.5792 15.152C77.4486 15.5533 77.2619 15.9033 77.0192 16.202C76.7766 16.5007 76.4732 16.734 76.1092 16.902C75.7452 17.0607 75.3159 17.14 74.8212 17.14ZM74.3032 15.642C74.7046 15.642 75.0172 15.558 75.2412 15.39C75.4652 15.2127 75.6239 14.984 75.7172 14.704C75.8199 14.424 75.8806 14.116 75.8992 13.78C75.9179 13.5 75.9179 13.22 75.8992 12.94C75.8806 12.604 75.8199 12.296 75.7172 12.016C75.6239 11.736 75.4652 11.512 75.2412 11.344C75.0172 11.1667 74.7046 11.078 74.3032 11.078C73.9299 11.078 73.6266 11.162 73.3932 11.33C73.1599 11.498 72.9826 11.7127 72.8612 11.974C72.7399 12.226 72.6746 12.492 72.6652 12.772C72.6559 12.94 72.6512 13.122 72.6512 13.318C72.6512 13.5047 72.6559 13.682 72.6652 13.85C72.6839 14.1393 72.7446 14.424 72.8472 14.704C72.9592 14.9747 73.1319 15.1987 73.3652 15.376C73.6079 15.5533 73.9206 15.642 74.3032 15.642ZM80.4041 19.66C80.3294 19.66 80.2641 19.632 80.2081 19.576C80.1521 19.52 80.1241 19.4547 80.1241 19.38C80.1241 19.3427 80.1241 19.3053 80.1241 19.268C80.1334 19.24 80.1521 19.2027 80.1801 19.156L81.2721 16.566L78.5841 10.224C78.5467 10.1307 78.5281 10.0653 78.5281 10.028C78.5374 9.944 78.5701 9.874 78.6261 9.818C78.6821 9.75267 78.7521 9.72 78.8361 9.72H79.9701C80.0821 9.72 80.1661 9.748 80.2221 9.804C80.2781 9.86 80.3201 9.92067 80.3481 9.986L82.2101 14.564L84.1281 9.986C84.1561 9.91133 84.1981 9.85067 84.2541 9.804C84.3101 9.748 84.3941 9.72 84.5061 9.72H85.6261C85.7007 9.72 85.7661 9.748 85.8221 9.804C85.8874 9.86 85.9201 9.92533 85.9201 10C85.9201 10.056 85.9014 10.1307 85.8641 10.224L81.9021 19.394C81.8647 19.4687 81.8181 19.5293 81.7621 19.576C81.7061 19.632 81.6221 19.66 81.5101 19.66H80.4041ZM90.2932 17C90.1999 17 90.1205 16.9673 90.0552 16.902C89.9899 16.8367 89.9572 16.7573 89.9572 16.664V10.056C89.9572 9.96267 89.9899 9.88333 90.0552 9.818C90.1205 9.75267 90.1999 9.72 90.2932 9.72H91.4412C91.5345 9.72 91.6139 9.75267 91.6792 9.818C91.7445 9.88333 91.7772 9.96267 91.7772 10.056V10.63C92.0199 10.3313 92.3279 10.084 92.7012 9.888C93.0839 9.68267 93.5552 9.58 94.1152 9.58C94.6845 9.58 95.1792 9.71067 95.5992 9.972C96.0192 10.224 96.3412 10.5833 96.5652 11.05C96.7985 11.5167 96.9152 12.0767 96.9152 12.73V16.664C96.9152 16.7573 96.8825 16.8367 96.8172 16.902C96.7519 16.9673 96.6725 17 96.5792 17H95.3472C95.2539 17 95.1745 16.9673 95.1092 16.902C95.0439 16.8367 95.0112 16.7573 95.0112 16.664V12.814C95.0112 12.2727 94.8759 11.848 94.6052 11.54C94.3439 11.232 93.9612 11.078 93.4572 11.078C92.9719 11.078 92.5845 11.232 92.2952 11.54C92.0059 11.848 91.8612 12.2727 91.8612 12.814V16.664C91.8612 16.7573 91.8285 16.8367 91.7632 16.902C91.6979 16.9673 91.6185 17 91.5252 17H90.2932ZM101.83 17.14C100.794 17.14 99.9722 16.8413 99.3655 16.244C98.7589 15.6467 98.4322 14.7973 98.3855 13.696C98.3762 13.6027 98.3715 13.486 98.3715 13.346C98.3715 13.1967 98.3762 13.08 98.3855 12.996C98.4229 12.296 98.5815 11.6893 98.8615 11.176C99.1509 10.6627 99.5475 10.2707 100.052 10C100.556 9.72 101.148 9.58 101.83 9.58C102.586 9.58 103.22 9.73867 103.734 10.056C104.247 10.364 104.634 10.798 104.896 11.358C105.157 11.9087 105.288 12.548 105.288 13.276V13.57C105.288 13.6633 105.255 13.7427 105.19 13.808C105.124 13.8733 105.04 13.906 104.938 13.906H100.29C100.29 13.906 100.29 13.92 100.29 13.948C100.29 13.976 100.29 13.9993 100.29 14.018C100.299 14.3447 100.36 14.648 100.472 14.928C100.593 15.1987 100.766 15.418 100.99 15.586C101.223 15.754 101.498 15.838 101.816 15.838C102.077 15.838 102.296 15.8007 102.474 15.726C102.651 15.642 102.796 15.5487 102.908 15.446C103.02 15.3433 103.099 15.2593 103.146 15.194C103.23 15.082 103.295 15.0167 103.342 14.998C103.398 14.97 103.477 14.956 103.58 14.956H104.784C104.877 14.956 104.952 14.984 105.008 15.04C105.073 15.096 105.101 15.166 105.092 15.25C105.082 15.3993 105.003 15.5813 104.854 15.796C104.714 16.0107 104.508 16.2207 104.238 16.426C103.967 16.6313 103.626 16.804 103.216 16.944C102.814 17.0747 102.352 17.14 101.83 17.14ZM100.29 12.73H103.384V12.688C103.384 12.324 103.323 12.0067 103.202 11.736C103.08 11.4653 102.903 11.2507 102.67 11.092C102.436 10.9333 102.156 10.854 101.83 10.854C101.503 10.854 101.223 10.9333 100.99 11.092C100.756 11.2507 100.579 11.4653 100.458 11.736C100.346 12.0067 100.29 12.324 100.29 12.688V12.73ZM108.557 17C108.426 17 108.328 16.9673 108.263 16.902C108.197 16.8367 108.141 16.7527 108.095 16.65L106.093 10.154C106.083 10.1073 106.079 10.0653 106.079 10.028C106.079 9.944 106.107 9.874 106.163 9.818C106.228 9.75267 106.298 9.72 106.373 9.72H107.409C107.521 9.72 107.609 9.75267 107.675 9.818C107.74 9.874 107.777 9.93 107.787 9.986L109.159 14.62L110.615 10.028C110.633 9.96267 110.675 9.89733 110.741 9.832C110.806 9.75733 110.904 9.72 111.035 9.72H111.735C111.865 9.72 111.963 9.75733 112.029 9.832C112.094 9.89733 112.136 9.96267 112.155 10.028L113.611 14.62L114.983 9.986C114.992 9.93 115.025 9.874 115.081 9.818C115.146 9.75267 115.235 9.72 115.347 9.72H116.383C116.467 9.72 116.537 9.75267 116.593 9.818C116.658 9.874 116.691 9.944 116.691 10.028C116.691 10.0653 116.681 10.1073 116.663 10.154L114.661 16.65C114.633 16.7527 114.581 16.8367 114.507 16.902C114.441 16.9673 114.343 17 114.213 17H113.303C113.172 17 113.069 16.9673 112.995 16.902C112.92 16.8367 112.869 16.7527 112.841 16.65L111.385 12.226L109.929 16.65C109.891 16.7527 109.835 16.8367 109.761 16.902C109.695 16.9673 109.593 17 109.453 17H108.557ZM120.984 17.14C119.948 17.14 119.126 16.8413 118.52 16.244C117.913 15.6467 117.586 14.7973 117.54 13.696C117.53 13.6027 117.526 13.486 117.526 13.346C117.526 13.1967 117.53 13.08 117.54 12.996C117.577 12.296 117.736 11.6893 118.016 11.176C118.305 10.6627 118.702 10.2707 119.206 10C119.71 9.72 120.302 9.58 120.984 9.58C121.74 9.58 122.374 9.73867 122.888 10.056C123.401 10.364 123.788 10.798 124.05 11.358C124.311 11.9087 124.442 12.548 124.442 13.276V13.57C124.442 13.6633 124.409 13.7427 124.344 13.808C124.278 13.8733 124.194 13.906 124.092 13.906H119.444C119.444 13.906 119.444 13.92 119.444 13.948C119.444 13.976 119.444 13.9993 119.444 14.018C119.453 14.3447 119.514 14.648 119.626 14.928C119.747 15.1987 119.92 15.418 120.144 15.586C120.377 15.754 120.652 15.838 120.97 15.838C121.231 15.838 121.45 15.8007 121.628 15.726C121.805 15.642 121.95 15.5487 122.062 15.446C122.174 15.3433 122.253 15.2593 122.3 15.194C122.384 15.082 122.449 15.0167 122.496 14.998C122.552 14.97 122.631 14.956 122.734 14.956H123.938C124.031 14.956 124.106 14.984 124.162 15.04C124.227 15.096 124.255 15.166 124.246 15.25C124.236 15.3993 124.157 15.5813 124.008 15.796C123.868 16.0107 123.662 16.2207 123.392 16.426C123.121 16.6313 122.78 16.804 122.37 16.944C121.968 17.0747 121.506 17.14 120.984 17.14ZM119.444 12.73H122.538V12.688C122.538 12.324 122.477 12.0067 122.356 11.736C122.234 11.4653 122.057 11.2507 121.824 11.092C121.59 10.9333 121.31 10.854 120.984 10.854C120.657 10.854 120.377 10.9333 120.144 11.092C119.91 11.2507 119.733 11.4653 119.612 11.736C119.5 12.0067 119.444 12.324 119.444 12.688V12.73ZM128.686 17.14C128.126 17.14 127.645 17.0747 127.244 16.944C126.852 16.8133 126.53 16.65 126.278 16.454C126.026 16.258 125.839 16.062 125.718 15.866C125.597 15.67 125.531 15.5067 125.522 15.376C125.513 15.2733 125.541 15.194 125.606 15.138C125.681 15.0727 125.76 15.04 125.844 15.04H126.95C126.987 15.04 127.02 15.0447 127.048 15.054C127.076 15.0633 127.113 15.0913 127.16 15.138C127.281 15.2407 127.407 15.348 127.538 15.46C127.678 15.572 127.841 15.67 128.028 15.754C128.215 15.8287 128.448 15.866 128.728 15.866C129.092 15.866 129.395 15.796 129.638 15.656C129.89 15.5067 130.016 15.2967 130.016 15.026C130.016 14.83 129.96 14.6713 129.848 14.55C129.745 14.4287 129.549 14.3213 129.26 14.228C128.971 14.1253 128.56 14.018 128.028 13.906C127.505 13.7847 127.071 13.6307 126.726 13.444C126.381 13.2573 126.124 13.024 125.956 12.744C125.788 12.464 125.704 12.1373 125.704 11.764C125.704 11.4 125.811 11.0547 126.026 10.728C126.25 10.392 126.577 10.1167 127.006 9.902C127.445 9.68733 127.986 9.58 128.63 9.58C129.134 9.58 129.573 9.64533 129.946 9.776C130.319 9.89733 130.627 10.0513 130.87 10.238C131.122 10.4247 131.313 10.616 131.444 10.812C131.575 10.9987 131.645 11.162 131.654 11.302C131.663 11.4047 131.635 11.4887 131.57 11.554C131.505 11.61 131.43 11.638 131.346 11.638H130.31C130.263 11.638 130.221 11.6287 130.184 11.61C130.147 11.5913 130.109 11.568 130.072 11.54C129.969 11.4467 129.857 11.3487 129.736 11.246C129.615 11.1433 129.465 11.0547 129.288 10.98C129.12 10.896 128.896 10.854 128.616 10.854C128.261 10.854 127.991 10.9333 127.804 11.092C127.617 11.2413 127.524 11.4327 127.524 11.666C127.524 11.8247 127.566 11.9647 127.65 12.086C127.743 12.198 127.925 12.3053 128.196 12.408C128.467 12.5107 128.877 12.618 129.428 12.73C130.053 12.842 130.548 13.01 130.912 13.234C131.285 13.4487 131.547 13.7007 131.696 13.99C131.855 14.27 131.934 14.5827 131.934 14.928C131.934 15.348 131.808 15.726 131.556 16.062C131.313 16.398 130.949 16.664 130.464 16.86C129.988 17.0467 129.395 17.14 128.686 17.14ZM136.642 17C136.082 17 135.61 16.902 135.228 16.706C134.845 16.51 134.56 16.2207 134.374 15.838C134.187 15.446 134.094 14.9607 134.094 14.382V11.204H132.988C132.894 11.204 132.815 11.1713 132.75 11.106C132.684 11.0407 132.652 10.9613 132.652 10.868V10.056C132.652 9.96267 132.684 9.88333 132.75 9.818C132.815 9.75267 132.894 9.72 132.988 9.72H134.094V7.396C134.094 7.30267 134.122 7.22333 134.178 7.158C134.243 7.09267 134.327 7.06 134.43 7.06H135.564C135.657 7.06 135.736 7.09267 135.802 7.158C135.867 7.22333 135.9 7.30267 135.9 7.396V9.72H137.65C137.743 9.72 137.822 9.75267 137.888 9.818C137.953 9.88333 137.986 9.96267 137.986 10.056V10.868C137.986 10.9613 137.953 11.0407 137.888 11.106C137.822 11.1713 137.743 11.204 137.65 11.204H135.9V14.242C135.9 14.6247 135.965 14.9233 136.096 15.138C136.236 15.3527 136.474 15.46 136.81 15.46H137.776C137.869 15.46 137.948 15.4927 138.014 15.558C138.079 15.6233 138.112 15.7027 138.112 15.796V16.664C138.112 16.7573 138.079 16.8367 138.014 16.902C137.948 16.9673 137.869 17 137.776 17H136.642Z" fill="white"/>
<path d="M19 4H5C3.89543 4 3 4.89543 3 6V20C3 21.1046 3.89543 22 5 22H19C20.1046 22 21 21.1046 21 20V6C21 4.89543 20.1046 4 19 4Z" stroke="white" stroke-width="2" stroke-linecap="round" stroke-linejoin="round"/>
<path d="M16 2V6" stroke="white" stroke-width="2" stroke-linecap="round" stroke-linejoin="round"/>
<path d="M8 2V6" stroke="white" stroke-width="2" stroke-linecap="round" stroke-linejoin="round"/>
<path d="M3 10H21" stroke="white" stroke-width="2" stroke-linecap="round" stroke-linejoin="round"/>
</svg>
