<svg width="94" height="24" viewBox="0 0 94 24" fill="none" xmlns="http://www.w3.org/2000/svg">
<path d="M47.1224 16.8983H51.7544V18.6743H44.9704V7.10632H47.1224V16.8983ZM56.3312 10.3383C56.9445 10.3383 57.4992 10.437 57.9952 10.6343C58.4965 10.8316 58.9232 11.1116 59.2752 11.4743C59.6272 11.837 59.8992 12.2796 60.0912 12.8023C60.2832 13.325 60.3792 13.909 60.3792 14.5543C60.3792 15.205 60.2832 15.7916 60.0912 16.3143C59.8992 16.837 59.6272 17.2823 59.2752 17.6503C58.9232 18.0183 58.4965 18.301 57.9952 18.4983C57.4992 18.6956 56.9445 18.7943 56.3312 18.7943C55.7178 18.7943 55.1605 18.6956 54.6592 18.4983C54.1578 18.301 53.7285 18.0183 53.3712 17.6503C53.0192 17.2823 52.7445 16.837 52.5472 16.3143C52.3552 15.7916 52.2592 15.205 52.2592 14.5543C52.2592 13.909 52.3552 13.325 52.5472 12.8023C52.7445 12.2796 53.0192 11.837 53.3712 11.4743C53.7285 11.1116 54.1578 10.8316 54.6592 10.6343C55.1605 10.437 55.7178 10.3383 56.3312 10.3383ZM56.3312 17.2743C57.0138 17.2743 57.5178 17.045 57.8432 16.5863C58.1738 16.1276 58.3392 15.4556 58.3392 14.5703C58.3392 13.685 58.1738 13.0103 57.8432 12.5463C57.5178 12.0823 57.0138 11.8503 56.3312 11.8503C55.6378 11.8503 55.1258 12.085 54.7952 12.5543C54.4645 13.0183 54.2992 13.6903 54.2992 14.5703C54.2992 15.4503 54.4645 16.1223 54.7952 16.5863C55.1258 17.045 55.6378 17.2743 56.3312 17.2743ZM64.7609 10.3223C65.1129 10.3223 65.4436 10.3596 65.7529 10.4343C66.0623 10.5036 66.3449 10.6076 66.6009 10.7463H68.9609V11.4823C68.9609 11.605 68.9289 11.701 68.8649 11.7703C68.8009 11.8396 68.6916 11.8876 68.5369 11.9143L67.8009 12.0503C67.8543 12.189 67.8943 12.3356 67.9209 12.4903C67.9529 12.645 67.9689 12.8076 67.9689 12.9783C67.9689 13.3836 67.8863 13.7516 67.7209 14.0823C67.5609 14.4076 67.3369 14.685 67.0489 14.9143C66.7663 15.1436 66.4276 15.3223 66.0329 15.4503C65.6436 15.573 65.2196 15.6343 64.7609 15.6343C64.4516 15.6343 64.1503 15.605 63.8569 15.5463C63.6009 15.701 63.4729 15.8743 63.4729 16.0663C63.4729 16.2316 63.5476 16.3543 63.6969 16.4343C63.8516 16.509 64.0516 16.5623 64.2969 16.5943C64.5476 16.6263 64.8303 16.6476 65.1449 16.6583C65.4596 16.6636 65.7823 16.6796 66.1129 16.7063C66.4436 16.733 66.7663 16.781 67.0809 16.8503C67.3956 16.9143 67.6756 17.0183 67.9209 17.1623C68.1716 17.3063 68.3716 17.5036 68.5209 17.7543C68.6756 17.9996 68.7529 18.317 68.7529 18.7063C68.7529 19.069 68.6623 19.421 68.4809 19.7623C68.3049 20.1036 68.0463 20.4076 67.7049 20.6743C67.3689 20.941 66.9556 21.1543 66.4649 21.3143C65.9743 21.4796 65.4143 21.5623 64.7849 21.5623C64.1609 21.5623 63.6196 21.501 63.1609 21.3783C62.7023 21.261 62.3209 21.101 62.0169 20.8983C61.7183 20.701 61.4943 20.4716 61.3449 20.2103C61.1956 19.949 61.1209 19.677 61.1209 19.3943C61.1209 19.0103 61.2383 18.6876 61.4729 18.4263C61.7076 18.165 62.0329 17.957 62.4489 17.8023C62.2463 17.6903 62.0836 17.541 61.9609 17.3543C61.8383 17.1676 61.7769 16.925 61.7769 16.6263C61.7769 16.5036 61.7983 16.3783 61.8409 16.2503C61.8836 16.117 61.9476 15.9863 62.0329 15.8583C62.1236 15.7303 62.2356 15.6103 62.3689 15.4983C62.5023 15.381 62.6596 15.277 62.8409 15.1863C62.4249 14.9623 62.0969 14.6636 61.8569 14.2903C61.6223 13.917 61.5049 13.4796 61.5049 12.9783C61.5049 12.573 61.5849 12.2076 61.7449 11.8823C61.9103 11.5516 62.1369 11.2716 62.4249 11.0423C62.7183 10.8076 63.0623 10.629 63.4569 10.5063C63.8569 10.3836 64.2916 10.3223 64.7609 10.3223ZM66.9289 19.0423C66.9289 18.8823 66.8809 18.7516 66.7849 18.6503C66.6889 18.549 66.5583 18.4716 66.3929 18.4183C66.2276 18.3596 66.0329 18.317 65.8089 18.2903C65.5903 18.2636 65.3556 18.245 65.1049 18.2343C64.8596 18.2183 64.6036 18.205 64.3369 18.1943C64.0756 18.1783 63.8223 18.1543 63.5769 18.1223C63.3529 18.245 63.1716 18.3916 63.0329 18.5623C62.8996 18.7276 62.8329 18.9196 62.8329 19.1383C62.8329 19.2823 62.8676 19.4156 62.9369 19.5383C63.0116 19.6663 63.1263 19.7756 63.2809 19.8663C63.4409 19.957 63.6463 20.0263 63.8969 20.0743C64.1476 20.1276 64.4543 20.1543 64.8169 20.1543C65.1849 20.1543 65.5023 20.125 65.7689 20.0663C66.0356 20.013 66.2543 19.9356 66.4249 19.8343C66.6009 19.7383 66.7289 19.621 66.8089 19.4823C66.8889 19.349 66.9289 19.2023 66.9289 19.0423ZM64.7609 14.3703C65.0063 14.3703 65.2196 14.3383 65.4009 14.2743C65.5823 14.205 65.7316 14.1116 65.8489 13.9943C65.9716 13.877 66.0623 13.7356 66.1209 13.5703C66.1849 13.405 66.2169 13.2236 66.2169 13.0263C66.2169 12.621 66.0943 12.301 65.8489 12.0663C65.6089 11.8263 65.2463 11.7063 64.7609 11.7063C64.2756 11.7063 63.9103 11.8263 63.6649 12.0663C63.4249 12.301 63.3049 12.621 63.3049 13.0263C63.3049 13.2183 63.3343 13.397 63.3929 13.5623C63.4569 13.7276 63.5476 13.8716 63.6649 13.9943C63.7876 14.1116 63.9396 14.205 64.1209 14.2743C64.3076 14.3383 64.5209 14.3703 64.7609 14.3703ZM73.7062 10.3383C74.3195 10.3383 74.8742 10.437 75.3702 10.6343C75.8715 10.8316 76.2982 11.1116 76.6502 11.4743C77.0022 11.837 77.2742 12.2796 77.4662 12.8023C77.6582 13.325 77.7542 13.909 77.7542 14.5543C77.7542 15.205 77.6582 15.7916 77.4662 16.3143C77.2742 16.837 77.0022 17.2823 76.6502 17.6503C76.2982 18.0183 75.8715 18.301 75.3702 18.4983C74.8742 18.6956 74.3195 18.7943 73.7062 18.7943C73.0928 18.7943 72.5355 18.6956 72.0342 18.4983C71.5328 18.301 71.1035 18.0183 70.7462 17.6503C70.3942 17.2823 70.1195 16.837 69.9222 16.3143C69.7302 15.7916 69.6342 15.205 69.6342 14.5543C69.6342 13.909 69.7302 13.325 69.9222 12.8023C70.1195 12.2796 70.3942 11.837 70.7462 11.4743C71.1035 11.1116 71.5328 10.8316 72.0342 10.6343C72.5355 10.437 73.0928 10.3383 73.7062 10.3383ZM73.7062 17.2743C74.3888 17.2743 74.8928 17.045 75.2182 16.5863C75.5488 16.1276 75.7142 15.4556 75.7142 14.5703C75.7142 13.685 75.5488 13.0103 75.2182 12.5463C74.8928 12.0823 74.3888 11.8503 73.7062 11.8503C73.0128 11.8503 72.5008 12.085 72.1702 12.5543C71.8395 13.0183 71.6742 13.6903 71.6742 14.5703C71.6742 15.4503 71.8395 16.1223 72.1702 16.5863C72.5008 17.045 73.0128 17.2743 73.7062 17.2743ZM81.1039 10.4663V15.6823C81.1039 16.1836 81.2186 16.573 81.4479 16.8503C81.6826 17.1223 82.0319 17.2583 82.4959 17.2583C82.8373 17.2583 83.1573 17.1836 83.4559 17.0343C83.7546 16.8796 84.0373 16.669 84.3039 16.4023V10.4663H86.2799V18.6743H85.0719C84.8159 18.6743 84.6479 18.5543 84.5679 18.3143L84.4319 17.6583C84.2613 17.829 84.0853 17.9863 83.9039 18.1303C83.7226 18.269 83.5279 18.389 83.3199 18.4903C83.1173 18.5863 82.8959 18.661 82.6559 18.7143C82.4213 18.773 82.1679 18.8023 81.8959 18.8023C81.4479 18.8023 81.0506 18.7276 80.7039 18.5783C80.3626 18.4236 80.0746 18.2076 79.8399 17.9303C79.6053 17.653 79.4266 17.325 79.3039 16.9463C79.1866 16.5623 79.1279 16.141 79.1279 15.6823V10.4663H81.1039ZM91.0857 18.8023C90.3763 18.8023 89.8297 18.6023 89.4457 18.2023C89.0617 17.797 88.8697 17.2396 88.8697 16.5303V11.9463H88.0377C87.931 11.9463 87.8377 11.9116 87.7577 11.8423C87.683 11.773 87.6457 11.669 87.6457 11.5303V10.7463L88.9657 10.5303L89.3817 8.29032C89.403 8.18365 89.451 8.10098 89.5257 8.04232C89.6057 7.98365 89.7043 7.95432 89.8217 7.95432H90.8457V10.5383H93.0057V11.9463H90.8457V16.3943C90.8457 16.6503 90.9097 16.8503 91.0377 16.9943C91.1657 17.1383 91.3363 17.2103 91.5497 17.2103C91.6723 17.2103 91.7737 17.197 91.8537 17.1703C91.939 17.1383 92.011 17.1063 92.0697 17.0743C92.1337 17.0423 92.1897 17.013 92.2377 16.9863C92.2857 16.9543 92.3337 16.9383 92.3817 16.9383C92.4403 16.9383 92.4883 16.9543 92.5257 16.9863C92.563 17.013 92.603 17.0556 92.6457 17.1143L93.2377 18.0743C92.9497 18.3143 92.619 18.4956 92.2457 18.6183C91.8723 18.741 91.4857 18.8023 91.0857 18.8023Z" fill="white"/>
<path d="M1.53088 21.9243H12.0309V23.4243H0.0308838V0.924316H12.0309V2.42432H1.53088V21.9243ZM21.2067 12.1743L15.4996 17.8931L14.5621 16.9556L18.6051 12.9243H6.03088V11.4243H18.6051L14.5621 7.39307L15.4996 6.45557L21.2067 12.1743Z" fill="#C680CD"/>
</svg>
